# xmcd
#
# Track frame offsets:
#	300
#	16420
#	30707
#	48351
#	68679
#	85190
#	101961
#	120611
#	136649
#	155787
#	164979
#	184364
#
# Disc length: 2736 seconds
#
# Revision: 1
# Processed by: cddbd v1.5.2PL0 Copyright (c) Steve Scherf et al.
# Submitted via: audiograbber 1.83.01
#
DISCID=a80aac0c
DTITLE=Bob Reeves Music - Only a prayer away
DYEAR=2011
DGENRE=Gospel
TTITLE0=Only a prayer away
TTITLE1=Only Jesus
TTITLE2=My forever friend
TTITLE3=Freedom road
TTITLE4=It is no secret
TTITLE5=Nativity
TTITLE6=How long has it been
TTITLE7=Watch and pray
TTITLE8=Cast your burden
TTITLE9=I talk to Jesus everyday
TTITLE10=The day will come
TTITLE11=Worthy the lamb
EXTD=
EXTT0=
EXTT1=
EXTT2=
EXTT3=
EXTT4=
EXTT5=
EXTT6=
EXTT7=
EXTT8=
EXTT9=
EXTT10=
EXTT11=
PLAYORDER=
